<?xml version="1.0" encoding="utf-8"?>
<!-- Generator: Adobe Illustrator 20.0.0, SVG Export Plug-In . SVG Version: 6.00 Build 0)  -->
<svg version="1.1" id="Layer_1" xmlns="http://www.w3.org/2000/svg" xmlns:xlink="http://www.w3.org/1999/xlink" x="0px" y="0px"
	 viewBox="0 0 360 120" style="enable-background:new 0 0 360 120;" xml:space="preserve">
<g>
	<polygon points="67.9,45.3 67.9,91 46.5,91 46.5,45.3 30.8,45.3 30.8,27.2 83.6,27.2 83.6,45.3 67.9,45.3 	"/>
	<path d="M115,60.5c-0.7-0.2-1.4-0.3-2.2-0.4c-0.8-0.1-1.5-0.1-2.2-0.1c-2.7,0-4.9,0.8-6.5,2.3c-1.6,1.6-2.4,3.5-2.4,5.8v23H80.9
		V43.6h20V49h0.2c1-1.9,2.5-3.5,4.5-4.8c2-1.3,4.4-1.9,7.1-1.9c1.6,0,2.9,0.2,4,0.5L115,60.5L115,60.5z"/>
	<path d="M162.9,56.7c-0.7-2.9-1.9-5.5-3.6-7.7s-4-4-7-5.2c-2.9-1.3-6.7-1.9-11.2-1.9c-4.2,0-8.3,0.8-12.2,2.2
		c-4,1.5-7.4,3.6-10.3,6.4L129,60.7c1.3-1.1,2.8-2,4.5-2.8c1.7-0.8,3.5-1.2,5.4-1.2c1.6,0,2.9,0.3,3.9,1c1,0.7,1.5,1.8,1.5,3.2v0.2
		c-3.1,0-6.3,0.2-9.6,0.6c-3.3,0.4-6.2,1.2-8.9,2.4c-2.6,1.2-4.8,2.8-6.5,4.9c-1.7,2.1-2.6,4.8-2.6,8.1c0,2.8,0.5,5.2,1.5,7.1
		c1,1.9,2.3,3.5,3.9,4.7c1.6,1.2,3.4,2.1,5.3,2.6c1.9,0.5,3.9,0.8,5.7,0.8c2.1,0,4.3-0.4,6.5-1.2c2.2-0.8,3.9-2.1,5.1-3.9h0.2V91
		h18.8V66C163.9,62.7,163.6,59.6,162.9,56.7z M145.8,73c0,2-0.6,3.6-1.8,4.9c-1.2,1.3-2.8,1.9-4.8,1.9c-0.5,0-1-0.1-1.6-0.2
		c-0.6-0.1-1.1-0.4-1.6-0.7c-0.5-0.3-0.9-0.7-1.2-1.1c-0.3-0.5-0.4-1-0.4-1.7c0-1.8,0.9-3,2.8-3.7c1.9-0.7,4.3-1,7.4-1h1.2V73z"/>
	<path d="M202.5,91V65.8c0-2.4-0.4-4.1-1.1-5c-0.8-1-1.9-1.4-3.4-1.4c-1.4,0-2.5,0.6-3.4,1.7c-0.9,1.1-1.3,2.7-1.3,4.8V91h-20.8
		V43.6h20.2v5.2h0.2c1.2-1.7,3-3.3,5.3-4.5c2.4-1.3,5.1-1.9,8.1-1.9c3.3,0,6,0.6,8.2,1.8c2.2,1.2,3.9,2.7,5.2,4.6
		c1.3,1.9,2.2,4,2.7,6.3c0.5,2.3,0.8,4.7,0.8,7V91H202.5L202.5,91z"/>
	<path d="M262.4,60c-1.2-0.4-2.3-0.7-3.4-0.7c-1,0-2,0.2-3,0.5c-1,0.3-1.8,0.8-2.6,1.5c-0.8,0.7-1.4,1.5-1.8,2.5
		c-0.5,1-0.7,2.1-0.7,3.5c0,1.3,0.2,2.5,0.7,3.5c0.5,1,1.1,1.8,1.8,2.4c0.7,0.6,1.6,1.1,2.6,1.4c1,0.3,1.9,0.5,3,0.5
		c1.2,0,2.4-0.2,3.5-0.7c1.1-0.5,2.1-1.1,2.8-1.8l10.4,14.5c-2,1.6-4.5,2.9-7.7,3.9c-3.1,1.1-6.5,1.6-9.9,1.6c-4,0-7.7-0.6-11.1-1.8
		c-3.4-1.2-6.3-2.9-8.7-5.1c-2.5-2.2-4.4-4.9-5.8-8c-1.4-3.1-2.1-6.6-2.1-10.5c0-3.8,0.7-7.3,2.1-10.5c1.4-3.1,3.4-5.8,5.9-8.1
		c2.5-2.2,5.5-3.9,8.9-5.1c3.4-1.2,7.1-1.8,11-1.8c1.6,0,3.3,0.1,4.9,0.4c1.7,0.3,3.2,0.6,4.8,1.1c1.5,0.5,2.9,1,4.2,1.6
		c1.3,0.6,2.4,1.3,3.3,2l-10.4,14.9C264.6,61.1,263.6,60.5,262.4,60L262.4,60z"/>
	<path d="M327.4,57.4c-1.2-3.2-2.9-5.9-5.1-8.2c-2.2-2.3-4.8-4.1-7.9-5.4c-3.1-1.3-6.5-1.9-10.2-1.9c-3.7,0-7.1,0.6-10.3,1.8
		c-3.2,1.2-6,2.9-8.4,5.1c-2.4,2.2-4.2,4.9-5.6,8c-1.4,3.2-2.1,6.7-2.1,10.6c0,4.2,0.7,7.9,2.3,11.1c1.5,3.2,3.5,5.8,6,8
		c2.5,2.1,5.4,3.7,8.6,4.8c3.2,1.1,6.6,1.6,10,1.6c5.3,0,9.9-1,13.9-3c4-2,7-4.7,9.1-8.1L313,74.2c-0.7,0.8-1.6,1.6-2.9,2.3
		c-1.3,0.7-2.9,1-4.8,1c-1,0-1.9-0.1-2.8-0.4c-0.9-0.2-1.8-0.6-2.5-1.1c-0.8-0.5-1.4-1-1.9-1.7c-0.5-0.7-0.8-1.4-0.9-2.2H329
		c0.1-0.5,0.1-1.2,0.1-2c0-0.8,0-1.6,0-2.4C329.2,64,328.6,60.6,327.4,57.4z M297,61c0.2-1.3,0.9-2.6,2.2-3.9c1.3-1.3,3-1.9,5.3-1.9
		c2.1,0,3.8,0.5,5,1.6c1.2,1.1,1.8,2.5,1.8,4.1H297z"/>
</g>
</svg>
