<?xml version="1.0" encoding="utf-8"?>
<!-- Generator: Adobe Illustrator 20.0.0, SVG Export Plug-In . SVG Version: 6.00 Build 0)  -->
<svg version="1.1" id="Layer_1" xmlns="http://www.w3.org/2000/svg" xmlns:xlink="http://www.w3.org/1999/xlink" x="0px" y="0px"
	 viewBox="0 0 360 120" style="enable-background:new 0 0 360 120;" xml:space="preserve">
<style type="text/css">
	.st0{stroke:#010101;stroke-width:0.75;stroke-miterlimit:10;}
</style>
<g>
	<path class="st0" d="M55.2,52c-1.4-1.8-3.2-3.2-5.3-4.1c-2.1-0.9-4-1.4-5.7-1.4c-1.6,0-2.8,0.2-3.8,0.7c-1,0.5-1.4,1.2-1.4,2.2
		c0,1,0.5,1.7,1.5,2.2c1,0.5,2.6,1.1,4.8,1.8c2.3,0.7,4.7,1.6,7.2,2.5c2.5,1,4.8,2.2,7,3.7c2.1,1.5,3.9,3.4,5.3,5.6
		c1.4,2.2,2.1,5,2.1,8.3c0,3.8-0.8,7.2-2.3,10c-1.5,2.9-3.5,5.2-6,7.1c-2.5,1.9-5.3,3.3-8.4,4.2c-3.1,0.9-6.3,1.4-9.5,1.4
		c-2.6,0-5.1-0.2-7.6-0.7c-2.5-0.4-4.9-1.1-7.2-2c-2.3-0.9-4.5-1.9-6.5-3c-2-1.2-3.9-2.5-5.5-3.9l13-14.2c1.5,1.6,3.5,3.1,6,4.3
		c2.5,1.3,5.1,1.9,7.7,1.9c1.2,0,2.3-0.2,3.3-0.6c1-0.4,1.5-1.2,1.5-2.3c0-0.6-0.2-1.1-0.5-1.5c-0.3-0.4-0.9-0.9-1.8-1.3
		c-0.8-0.5-2-0.9-3.5-1.5c-1.5-0.5-3.3-1.2-5.5-1.9c-2.2-0.7-4.2-1.6-6.2-2.6c-2-1-3.7-2.2-5.3-3.7c-1.5-1.4-2.7-3.2-3.6-5.2
		c-0.9-2-1.3-4.4-1.3-7.3c0-4,0.8-7.3,2.4-10.1c1.6-2.8,3.7-5,6.3-6.8c2.5-1.8,5.4-3.1,8.6-3.8c3.2-0.8,6.3-1.2,9.5-1.2
		c4.2,0,8.5,0.8,12.8,2.4c4.3,1.6,8.2,4,11.5,7L55.2,52L55.2,52z"/>
	<path class="st0" d="M104,94.5V69.3c0-2.4-0.4-4.1-1.1-5c-0.8-1-1.9-1.4-3.4-1.4c-1.2,0-2.3,0.5-3.2,1.6c-1,1.1-1.4,2.7-1.4,5v25.1
		H74v-68h20.8v25.9H95c1.2-1.7,2.9-3.3,5.1-4.5c2.2-1.3,4.8-1.9,7.8-1.9c3.3,0,6,0.6,8.2,1.8c2.2,1.2,3.9,2.7,5.2,4.6
		c1.3,1.9,2.2,4,2.7,6.3c0.5,2.3,0.8,4.7,0.8,7v28.8H104L104,94.5z"/>
	<path class="st0" d="M163.8,94.5v-5.2h-0.2c-1.2,1.7-3,3.3-5.4,4.5c-2.4,1.3-5.1,1.9-8.1,1.9c-3.4,0-6.1-0.6-8.3-1.8
		c-2.2-1.2-3.9-2.7-5.2-4.6c-1.3-1.9-2.2-4-2.7-6.4c-0.5-2.4-0.8-4.7-0.8-7.1V47.1H154v25c0,2.4,0.4,4.1,1.1,5
		c0.8,1,1.9,1.4,3.4,1.4c1.4,0,2.5-0.6,3.4-1.7c0.9-1.1,1.3-2.7,1.3-4.8v-25h20.8v47.3H163.8L163.8,94.5z"/>
	<path class="st0" d="M227.3,40.7c-0.5-0.2-1.2-0.4-1.9-0.6c-0.7-0.1-1.4-0.2-2.2-0.2c-2,0-3.5,0.6-4.3,1.9
		c-0.8,1.3-1.2,2.9-1.2,4.8v0.6h10V62h-10v32.5H197V62h-8.1V47.1h8.1v-1.1c0-2.9,0.3-5.8,1-8.5c0.7-2.7,1.9-5.1,3.6-7.2
		c1.7-2.1,4-3.7,6.8-4.9c2.9-1.2,6.5-1.8,10.8-1.8c1.4,0,3,0.1,4.8,0.3c1.8,0.2,3.4,0.6,4.6,1L227.3,40.7L227.3,40.7z"/>
	<polygon class="st0" points="266.1,94.5 266.1,26.4 287.3,26.4 287.3,94.5 266.1,94.5 	"/>
	<path class="st0" d="M260.3,40.1c-0.7-0.1-1.4-0.2-2.1-0.2c-2,0-3.4,0.6-4.2,1.9c-0.8,1.3-1.2,2.9-1.2,4.8v0.6h10V62h-10v32.5
		h-20.8V62h-8.1V47.1h8.1v-1.1c0-2.9,0.3-5.8,1-8.5c0.7-2.7,1.9-5.1,3.6-7.2c1.7-2.1,3.9-3.7,6.8-4.9c2.8-1.2,6.4-1.8,10.8-1.8
		c1.4,0,3,0.1,4.8,0.3c1.8,0.2,3.4,0.6,4.6,1l-1.4,15.6C261.6,40.4,261,40.2,260.3,40.1L260.3,40.1z"/>
	<path class="st0" d="M344.5,60.9c-1.2-3.2-2.9-5.9-5.1-8.2c-2.2-2.3-4.8-4.1-7.9-5.4c-3.1-1.3-6.5-1.9-10.2-1.9
		c-3.7,0-7.1,0.6-10.3,1.8c-3.2,1.2-6,2.9-8.4,5.1c-2.4,2.2-4.2,4.9-5.6,8c-1.4,3.1-2.1,6.7-2.1,10.6c0,4.2,0.7,7.9,2.2,11.1
		c1.5,3.2,3.5,5.8,6,8c2.5,2.1,5.4,3.7,8.6,4.8c3.2,1.1,6.6,1.6,10,1.6c5.3,0,9.9-1,13.9-3c4-2,7-4.7,9.1-8.1l-14.8-7.5
		c-0.7,0.8-1.6,1.6-2.9,2.3c-1.3,0.7-2.9,1-4.8,1c-1,0-1.9-0.1-2.8-0.4c-0.9-0.2-1.8-0.6-2.5-1.1c-0.8-0.5-1.4-1-1.9-1.7
		c-0.5-0.7-0.8-1.4-0.9-2.2h31.9c0.1-0.5,0.1-1.2,0.1-2c0-0.8,0-1.6,0-2.4C346.3,67.5,345.7,64.1,344.5,60.9z M314.1,64.5
		c0.2-1.3,0.9-2.6,2.2-3.9c1.3-1.3,3-1.9,5.3-1.9c2.1,0,3.8,0.5,5,1.6c1.2,1.1,1.8,2.5,1.8,4.1H314.1z"/>
</g>
</svg>
